# xmcd
#
# Track frame offsets: 
#        150
#        18329
#        31616
#        47014
#        65536
#        83693
#        101839
#        118588
#        134341
#        150968
#        169284
#        187982
#        200975
#        221443
#        236009
#
# Disc length: 3373 seconds
#
# Revision: 0
# Processed by: cddbd v1.5.2PL0 Copyright (c) Steve Scherf et al.
# Submitted via: ExactAudioCopy v1.0b1
#
DISCID=c60d2b0f
DTITLE=Année 80 compil - Année 80 compil CD 4
DYEAR=2010
DGENRE=Country
TTITLE0=Le grand orchestre du Splendid - La salsa du démon
TTITLE1=Les frobans - Chante
TTITLE2=Rika Zaraï - Carnaval sans chemise
TTITLE3=Au bonheur des damies - Oh les filles !
TTITLE4=Simon and les Modanais - Etoile des neiges
TTITLE5=Carlos - Big bisou
TTITLE6=Eric Morena - Oh mon bateau
TTITLE7=Licence IV - Viens boire un petit coup à la maison
TTITLE8=Moving on 80's - Gym tonic
TTITLE9=P.Lion - Dream
TTITLE10=M.C. Miker G and DJ Sven - Celebration rap
TTITLE11=Les bronzés font du ski - Just because of you
TTITLE12=David and Jonathan - Bella vita
TTITLE13=Kazero - Thai na na
TTITLE14=Paco - Amor de mis amores
EXTD=
EXTT0=
EXTT1=
EXTT2=
EXTT3=
EXTT4=
EXTT5=
EXTT6=
EXTT7=
EXTT8=
EXTT9=
EXTT10=
EXTT11=
EXTT12=
EXTT13=
EXTT14=
PLAYORDER=
